<svg t="1770128195714" class="icon" viewBox="0 0 1024 1024" version="1.1" xmlns="http://www.w3.org/2000/svg" p-id="10097" width="256" height="256"><path d="M679.594916 743.424H374.343014c-30.653398 0-55.50413-25.341919-55.50413-56.611382v-311.362602c0-31.261138 24.850732-56.611382 55.50413-56.611382h305.260228c30.653398 0 55.495805 25.350244 55.495805 56.611382v311.362602c0 31.269463-24.850732 56.611382-55.504131 56.611382z" fill="#32C5FF" p-id="10098"></path><path d="M679.594916 701.797984H374.343014c-7.659187 0-13.878114-6.36878-13.878114-14.219447V374.692423c0-7.858992 6.218927-14.227772 13.878114-14.227773h305.260228c7.659187 0 13.869789 6.36878 13.869788 14.227773V687.578537c0 7.850667-6.210602 14.219447-13.878114 14.219447z" fill="#88DDFF" p-id="10099"></path><path d="M943.961746 639.633691m-32.027057 0a32.027057 32.027057 0 1 0 64.054114 0 32.027057 32.027057 0 1 0-64.054114 0Z" fill="#FF2A8E" p-id="10100"></path><path d="M383.367534 943.961496m-32.027057 0a32.027057 32.027057 0 1 0 64.054114 0 32.027057 32.027057 0 1 0-64.054114 0Z" fill="#FF2A8E" p-id="10101"></path><path d="M511.500738 647.867317c4.570537 0 8.907967 1.948098 11.946666 5.344781 10.46478 11.730211 25.80813 18.456976 42.108878 18.456975 28.030959 0 51.574634-19.622504 53.589334-44.664715 0.41626-5.219902 3.380033-9.906992 7.900617-12.546082 17.641106-10.298276 28.605398-28.27239 28.605399-46.895869 0-13.445203-5.602862-26.507447-15.784585-36.780748a16.026016 16.026016 0 0 1 0-22.544651c10.181724-10.273301 15.784585-23.335545 15.784585-36.780748 0-24.184715-17.657756-45.505561-43.940423-53.048195a16.026016 16.026016 0 0 1-11.180748-18.998114c0.724293-3.130276 1.065626-5.677789 1.065626-8.033821 0-22.078439-20.213593-40.044228-45.047675-40.044228-12.837463 0-25.142114 4.936846-33.692097 13.545106-6.035772 6.035772-16.675382 6.035772-22.711155 0-8.558309-8.60826-20.846309-13.53678-33.692097-13.53678-24.834081 0-45.03935 17.957463-45.03935 40.044227 0 2.639089 0.291382 5.294829 0.857496 7.883968a16.009366 16.009366 0 0 1-11.214049 18.839935c-26.141138 7.525984-43.707317 28.971707-43.707317 53.347902 0 11.66361 4.195902 22.910959 12.129821 32.534894 4.70374 5.736065 4.878569 13.944715 0.391285 19.85561-8.183675 10.814439-12.521106 23.160715-12.521106 35.706797 0 19.980488 10.822764 39.13678 28.971708 51.241626 4.412358 2.938797 7.084748 7.875642 7.134699 13.187122 0.216455 26.290992 24.442797 47.686764 53.988943 47.686764 16.300748 0 31.644098-6.726764 42.108878-18.456975a16.001041 16.001041 0 0 1 11.946667-5.344781z" fill="#FFFFFF" p-id="10102"></path><path d="M1008.01586 496.515122a14.985366 14.985366 0 1 1 0 29.970732H766.734819v34.091707h65.103089a14.985366 14.985366 0 0 1 0 29.970732h-65.103089v34.100032h132.653788a47.095675 47.095675 0 0 1 44.556488-32.035382 47.070699 47.070699 0 0 1 47.020748 47.020748 47.070699 47.070699 0 0 1-47.020748 47.020748 47.08735 47.08735 0 0 1-44.556488-32.035382H766.734819v33.059382c0 6.685138-0.83252 13.320325-2.489236 19.739057a14.985366 14.985366 0 1 1-29.021658-7.459382 49.368455 49.368455 0 0 0 1.540162-12.27135V335.322537a49.13535 49.13535 0 0 0-49.085398-49.085399H335.322786c-4.162602 0-8.300228 0.524488-12.288 1.548488a14.985366 14.985366 0 1 1-7.467707-29.029984c6.418732-1.64839 13.070569-2.489236 19.755707-2.489235h33.059382v-45.189204c0-8.833041-3.438309-17.141593-9.682211-23.385496L260.1129 89.10465c-6.568585 3.246829-13.719935 4.91187-20.89626 4.91187a46.87922 46.87922 0 0 1-33.242537-13.74491 47.070699 47.070699 0 0 1 0-66.493399 47.079024 47.079024 0 0 1 66.493399 0c14.627382 14.619057 17.541203 36.547642 8.83304 54.130472L379.887599 166.504065a62.622179 62.622179 0 0 1 18.465301 44.573138v45.189204h34.100033v-65.10309a14.985366 14.985366 0 0 1 29.970731 0v65.10309h34.091708V14.985366a14.985366 14.985366 0 0 1 29.970731 0v241.281041h34.100033v-65.10309a14.985366 14.985366 0 0 1 29.970732 0v65.10309h34.091707V123.612618a47.095675 47.095675 0 0 1-32.035382-44.556488 47.070699 47.070699 0 0 1 47.020748-47.020748 47.070699 47.070699 0 0 1 47.020748 47.020748 47.08735 47.08735 0 0 1-32.035382 44.556488v132.653789h33.059382c43.590764 0 79.05613 35.465366 79.05613 79.05613v33.059382h45.197528a32.851252 32.851252 0 0 0 23.377171-9.682212l98.553756-98.553756a46.804293 46.804293 0 0 1-4.895219-20.929561 46.70439 46.70439 0 0 1 13.769886-33.242536 46.712715 46.712715 0 0 1 33.250862-13.769887 46.70439 46.70439 0 0 1 33.242536 13.769887 46.70439 46.70439 0 0 1 13.769886 33.242536 46.70439 46.70439 0 0 1-13.769886 33.250862 46.712715 46.712715 0 0 1-33.242536 13.769886 46.804293 46.804293 0 0 1-20.929561-4.903545l-98.553756 98.562082a62.613854 62.613854 0 0 1-44.573139 18.456975h-45.197528v34.100033h65.103089a14.985366 14.985366 0 0 1 0 29.970732h-65.103089v34.091707h241.281041z m-44.090277-269.345301c-3.213528 3.213528-4.995122 7.492683-4.995122 12.046569s1.781593 8.841366 4.995122 12.054895c3.221854 3.221854 7.501008 4.995122 12.054894 4.995122 4.553886 0 8.833041-1.773268 12.054895-4.995122 3.221854-3.213528 4.995122-7.492683 4.995122-12.054895 0-4.545561-1.773268-8.824715-4.995122-12.046569a16.933463 16.933463 0 0 0-12.054895-4.995122c-4.553886 0-8.824715 1.773268-12.054894 4.995122zM639.633941 61.997789a17.066667 17.066667 0 0 0-17.050016 17.058341 17.066667 17.066667 0 0 0 17.050016 17.041691 17.066667 17.066667 0 0 0 17.050016-17.041691 17.066667 17.066667 0 0 0-17.050016-17.050016z m-412.472195-2.913822a17.066667 17.066667 0 0 0 24.109788 0 17.066667 17.066667 0 0 0 0-24.118113c-3.321756-3.321756-7.684163-4.986797-12.054894-4.986797a17.066667 17.066667 0 0 0-12.054894 29.096585z m716.791674 563.508033a17.066667 17.066667 0 0 0-17.050016 17.041691 17.066667 17.066667 0 0 0 17.050016 17.050016 17.066667 17.066667 0 0 0 17.041692-17.050016 17.066667 17.066667 0 0 0-17.041692-17.041691z m-181.05652 311.31265c17.582829-8.708163 39.511415-5.794341 54.130472 8.833041a47.070699 47.070699 0 0 1 0 66.493398 46.870894 46.870894 0 0 1-33.242537 13.744911 46.870894 46.870894 0 0 1-33.250862-13.744911 47.070699 47.070699 0 0 1-8.83304-54.138796l-98.587057-98.587057a62.622179 62.622179 0 0 1-18.465301-44.573138v-45.197529h-34.100033v65.10309a14.985366 14.985366 0 0 1-29.970731 0v-65.10309H526.486103v241.281041a14.985366 14.985366 0 0 1-29.970731 0V766.734569h-34.091708v65.10309a14.985366 14.985366 0 0 1-29.970731 0v-65.10309H398.361225v132.653789a47.095675 47.095675 0 0 1 32.027057 44.556488 47.070699 47.070699 0 0 1-47.012422 47.020747 47.070699 47.070699 0 0 1-47.020748-47.020747 47.08735 47.08735 0 0 1 32.035382-44.556488V766.734569h-33.067708c-43.590764 0-79.047805-35.465366-79.047805-79.05613v-33.059382h-45.205853a32.851252 32.851252 0 0 0-23.377171 9.682211L89.138201 762.855024c3.196878 6.427057 4.903545 13.545106 4.903545 20.929561a46.70439 46.70439 0 0 1-13.769886 33.250862 46.712715 46.712715 0 0 1-33.250862 13.769886 46.70439 46.70439 0 0 1-33.250862-13.769886A46.712715 46.712715 0 0 1 0.00025 783.784585c0-12.554407 4.89522-24.36787 13.769886-33.250861a46.712715 46.712715 0 0 1 33.242537-13.769887c7.384455 0 14.510829 1.706667 20.92956 4.903545l98.553757-98.553756a62.613854 62.613854 0 0 1 44.573138-18.465301h45.197528v-34.091707h-65.103089a14.985366 14.985366 0 0 1 0-29.970732h65.103089V526.485854H14.985616a14.985366 14.985366 0 0 1 0-29.970732h241.28104v-34.091707h-65.103089a14.985366 14.985366 0 0 1 0-29.970732h65.103089v-34.100033H123.604542a47.095675 47.095675 0 0 1-44.556487 32.035383 47.070699 47.070699 0 0 1-47.012423-47.020748 47.070699 47.070699 0 0 1 47.012423-47.012423 47.08735 47.08735 0 0 1 44.556487 32.027057h132.662114v-33.059382c0-6.685138 0.83252-13.336976 2.497561-19.755708a14.985366 14.985366 0 1 1 29.021659 7.476033 49.293528 49.293528 0 0 0-1.548488 12.279675v352.364227a49.13535 49.13535 0 0 0 49.085398 49.077073h352.355903c4.162602 0 8.300228-0.516163 12.288-1.540162a14.985366 14.985366 0 1 1 7.467707 29.021658 79.339187 79.339187 0 0 1-19.755707 2.497561h-33.059382v45.189204c0 8.824715 3.438309 17.133268 9.682211 23.37717l98.595382 98.595382zM79.048055 400.417301a17.066667 17.066667 0 0 0 17.050016-17.050016 17.066667 17.066667 0 0 0-17.050016-17.041692 17.066667 17.066667 0 0 0-17.041691 17.041692 17.066667 17.066667 0 0 0 17.041691 17.050016z m-19.980488 395.422179c3.221854-3.221854 4.995122-7.501008 4.995122-12.054895 0-4.553886-1.773268-8.833041-4.995122-12.054894a16.933463 16.933463 0 0 0-12.046569-4.995122c-4.553886 0-8.833041 1.773268-12.054895 4.995122s-4.995122 7.501008-4.995122 12.054894c0 4.553886 1.773268 8.833041 4.995122 12.054895s7.492683 4.995122 12.054895 4.995122c4.553886 0 8.824715-1.773268 12.054894-4.995122z m324.299967 165.163707a17.066667 17.066667 0 0 0 17.050017-17.050016 17.066667 17.066667 0 0 0-17.050017-17.050017 17.066667 17.066667 0 0 0-17.050016 17.050017 17.066667 17.066667 0 0 0 17.050016 17.050016z m412.472195 27.031935a17.066667 17.066667 0 0 0 0-24.101463c-3.330081-3.330081-7.692488-4.995122-12.054894-4.995122a17.066667 17.066667 0 0 0-12.054894 29.096585 17.066667 17.066667 0 0 0 24.109788 0z m-407.435447-364.452423c-22.419772-14.760585-36.039805-38.545691-36.031479-64.020813 0-16.758634 5.769366-32.493268 15.77626-45.45561-10.24-12.204748-15.77626-26.973659-15.77626-42.641691 0-32.052033 23.435447-59.192195 55.529105-68.01691a51.158374 51.158374 0 0 1-1.473561-12.071545c0-30.337041 26.923707-55.029593 60.024716-55.029593 17.932488 0 34.041756 7.259577 45.047675 18.715056 11.014244-11.45548 27.115187-18.706732 45.047674-18.706731 33.101008 0 60.024715 24.684228 60.024716 55.029593 0 4.11265-0.524488 8.142049-1.473561 12.06322 32.093659 8.824715 55.529106 35.964878 55.529106 68.01691 0 17.957463-7.659187 35.099057-20.829659 48.044748 13.178797 12.954016 20.837984 30.087285 20.837984 48.053074 0 24.417821-13.928065 47.037398-36.181334 59.941463-2.214504 32.95948-32.260163 59.150569-68.899382 59.150569-21.878634 0-41.392911-9.349203-54.055544-23.893333-12.654309 14.54413-32.176911 23.893333-54.055545 23.893333-38.071154 0-69.040911-28.280715-69.040911-63.038439v-0.033301z m41.642667-193.186341c-26.340943 0.166504-47.703415 18.523577-47.720065 41.059902 0 8.158699 2.86387 15.976065 8.183675 22.644553a91.285854 91.285854 0 0 1 27.489821-11.189073 14.985366 14.985366 0 0 1 6.701788 29.204813c-24.950634 5.72774-42.375285 25.225366-42.375284 47.437008 0 12.30465 5.527935 24.084813 14.985366 33.034406 2.580813-4.145951 5.661138-8.042146 9.257626-11.613658a14.985366 14.985366 0 1 1 21.12104 21.254244c-6.010797 5.977496-9.324228 13.570081-9.324227 21.395772 0 18.232195 17.524553 33.059382 39.070179 33.059382 21.545626 0 39.070179-14.835512 39.070179-33.067707V591.588943c0-13.753236-10.264976-26.22439-25.541724-31.019707a14.985366 14.985366 0 0 1 8.991219-28.588748c5.977496 1.873171 11.513756 4.49561 16.550505 7.659187v-83.193756a14.985366 14.985366 0 0 1 29.970731 0v19.147967a73.261789 73.261789 0 0 1 39.070179-11.105821 14.985366 14.985366 0 0 1 0 29.970732c-21.537301 0-39.070179 14.827187-39.070179 33.059382v96.106146c0 18.232195 17.532878 33.059382 39.070179 33.059382 21.545626 0 39.070179-14.827187 39.070179-33.059382 0-13.753236-10.264976-26.22439-25.541724-31.019707a14.985366 14.985366 0 1 1 8.99122-28.597073c17.591154 5.527935 31.510894 17.141593 39.386536 31.727349 8.291902-7.534309 13.203772-17.607805 13.203773-28.172487 0-14.169496-8.616585-27.181789-23.060813-34.79935a14.985366 14.985366 0 0 1 0-26.507447c14.444228-7.617561 23.060813-20.629854 23.060813-34.79935 0-22.536325-21.362472-40.885073-47.703415-41.059902l-0.39961 0.024975c-0.149854 0-0.291382-0.01665-0.43291-0.024975a54.097171 54.097171 0 0 0-20.713106 4.195902 14.985366 14.985366 0 1 1-11.646959-27.614699 83.218732 83.218732 0 0 1 24.59265-6.168976c1.282081-2.589138 2.247805-5.74439 2.247805-9.432455 0-13.819837-13.486829-25.058862-30.053984-25.058862-16.57548 0-30.062309 11.239024-30.062309 25.058862a14.985366 14.985366 0 0 1-29.970731 0c0-13.819837-13.486829-25.058862-30.062309-25.058862s-30.062309 11.239024-30.062309 25.058862c0 6.526959 2.980423 11.422179 5.477984 14.377626l0.024975 0.024976c0.258081 0.308033 0.499512 0.62439 0.724293 0.949073 0.066602 0.091577 0.141528 0.174829 0.199805 0.266406 0.124878 0.183154 0.22478 0.366309 0.341333 0.549464a14.977041 14.977041 0 0 1-12.712585 22.877658l-0.39961-0.024975z" fill="#6236FF" p-id="10103"></path></svg>