<svg t="1768289432915" class="icon" viewBox="0 0 1024 1024" version="1.1" xmlns="http://www.w3.org/2000/svg" p-id="33665" width="180" height="180"><path d="M264.936739 105.51427V26.218697a26.026853 26.026853 0 0 0-51.989758 0v79.295573h51.989758z m129.494785 0V26.218697a26.026853 26.026853 0 0 0-51.989758 0v79.295573h51.989758z m129.494786 0V26.218697a26.026853 26.026853 0 0 0-51.989758 0v79.295573h51.989758z m129.558733 0V26.218697a26.026853 26.026853 0 0 0-51.989758 0v79.295573h51.989758z m129.494786 0V26.218697a26.026853 26.026853 0 0 0-51.989758 0v79.295573h51.989758z m-51.989758 812.65172v79.295572a26.026853 26.026853 0 0 0 51.989758 0v-79.295572h-51.989758z m-129.494786 0v79.295572a26.026853 26.026853 0 0 0 51.989758 0v-79.295572h-51.989758z m-129.558733 0v79.295572a26.026853 26.026853 0 0 0 51.989758 0v-79.295572H471.936552z m-129.494786 0v79.295572a26.026853 26.026853 0 0 0 51.989758 0v-79.295572h-51.989758z m-129.494785 0v79.295572a26.026853 26.026853 0 0 0 51.989758 0v-79.295572H212.946981z m704.963217-639.416474h79.295572a25.962905 25.962905 0 1 0 0-51.92581h-79.295572v51.92581z m0 129.558734h79.295572a26.026853 26.026853 0 0 0 0-51.989759h-79.295572v51.989759z m0 129.494785h79.295572a26.026853 26.026853 0 0 0 0-51.989758h-79.295572v51.989758z m0 129.558734h79.295572a26.026853 26.026853 0 0 0 0-51.989759h-79.295572v51.989759z m0 129.494785h79.295572a26.026853 26.026853 0 0 0 0-51.989758h-79.295572v51.989758z m-812.651721-51.989758H25.962905a26.026853 26.026853 0 0 0 0 51.989758h79.295572v-51.989758z m0-129.494786H25.962905a26.026853 26.026853 0 0 0 0 51.925811h79.295572V615.37201z m0-129.558733H25.962905a26.026853 26.026853 0 0 0 0 51.989758h79.295572v-51.989758z m0-129.494786H25.962905a26.026853 26.026853 0 0 0 0 51.989759h79.295572v-51.989759z m0-129.494785H25.962905a25.962905 25.962905 0 0 0 0 51.92581h79.295572v-51.92581z m647.154188 230.212952c-5.499532-4.476363-14.260413-6.778492-26.218698-6.778493h-45.786798v59.151939h45.72285c12.022232 0 20.783114-2.557922 26.346594-7.609817 5.56348-5.115843 8.313245-12.981453 8.313245-23.788671 0-9.592206-2.749766-16.626491-8.313245-21.038906z" fill="#343F99" p-id="33666"></path><path d="M846.672079 121.693124H176.496597a54.995316 54.995316 0 0 0-54.995317 55.059265v670.175482c0 30.37532 24.619996 54.995316 54.995317 54.995316h670.175482a54.995316 54.995316 0 0 0 54.995316-54.995316V176.688441a54.995316 54.995316 0 0 0-54.995316-54.995317zM592.542559 430.690064h23.021295v170.357585h-23.021295V430.562168z m-174.642103 0h23.021295v69.89521h88.887779V430.562168h23.021295v170.357585h-23.021295V520.920752h-88.887779v80.062949h-23.021295V430.562168zM260.268532 450.386061c14.452258-16.242803 33.892462-24.364204 58.320614-24.428152 19.248361 0 35.043527 4.987947 47.3855 14.899894 12.40592 9.847999 19.823893 23.468931 22.253918 40.926747h-22.18997a40.607007 40.607007 0 0 0-15.731219-26.218697 52.437395 52.437395 0 0 0-31.974021-9.208518 49.687629 49.687629 0 0 0-40.862799 18.864672c-10.103791 12.533816-15.155686 29.416099-15.155686 50.710798 0 22.573659 4.732155 39.775682 14.132517 51.542122 9.400362 11.830388 23.021295 17.713608 40.926748 17.713607a46.490227 46.490227 0 0 0 32.869293-12.150128c8.82483-8.185349 14.580154-19.759945 17.393868-34.723787h22.253918c-2.94161 20.974958-10.999063 37.473553-24.17236 49.367889-13.173297 11.894336-29.799788 17.841504-50.007369 17.905452-23.468931 0-42.205708-8.121401-56.146381-24.300256-13.876725-16.178855-20.847062-37.985137-20.911009-65.418847-0.063948-27.369762 7.098233-49.239993 21.614438-65.482796z m510.305377 65.099107c-9.336414 9.080622-22.253919 13.620933-38.816462 13.620933-21.742334 0-38.88041 0-51.478174 0.255792v71.621808h-23.021295V430.562168h74.499469c16.562543 0 29.480047 4.156623 38.816462 12.469868 9.272466 8.313245 13.940673 19.823893 13.940673 34.467995 0 16.114907-4.668207 28.776619-13.940673 37.921189z" fill="#343F99" p-id="33667"></path></svg>