<svg t="1770128620710" class="icon" viewBox="0 0 1360 1024" version="1.1" xmlns="http://www.w3.org/2000/svg" p-id="22583" width="256" height="256"><path d="M1161.316721 868.721311a73.470601 73.470601 0 1 0 73.470601 73.470602 73.582514 73.582514 0 0 0-73.470601-73.470602z m-430.863388-768.279781a327.903825 327.903825 0 0 1 223.041749 86.004809c2.126339 2.126339 3.301421 3.581202 4.476503 4.81224a51.032131 51.032131 0 0 0 8.113661 7.777924 46.275847 46.275847 0 0 0 38.665792 19.472787 45.604372 45.604372 0 0 0 45.268634-45.268634 53.997814 53.997814 0 0 0-17.961967-38.386011 75.876721 75.876721 0 0 0-9.568525-8.673224l-3.581202-2.294208A416.594536 416.594536 0 0 0 729.949727 8.449399a422.861639 422.861639 0 0 0-421.294864 393.820328 306.696393 306.696393 0 0 0 6.882623 613.33683h72.74317a44.765027 44.765027 0 0 0 45.268634-44.373333 32.510601 32.510601 0 0 0-9.008962-25.180328 44.765027 44.765027 0 0 0-32.958251-14.380765h-74.421858a217.949727 217.949727 0 0 1 0-435.843497h41.351694a41.183825 41.183825 0 0 0 30.552131-15.276066 45.100765 45.100765 0 0 0 10.184043-38.050273c-0.279781-3.021639-0.279781-6.267104-0.279781-9.568525a332.380328 332.380328 0 0 1 331.261202-332.49224z" fill="#333333" p-id="22584"></path><path d="M929.042186 342.340546a55.956284 55.956284 0 0 0-40.176612-16.171366h-168.484372a73.302732 73.302732 0 0 0-130.993661 30.27235 75.540984 75.540984 0 0 0 16.171366 61.551913 73.302732 73.302732 0 0 0 56.963497 24.900546 70.728743 70.728743 0 0 0 60.264918-32.958251h143.583826a25.124372 25.124372 0 0 1 17.066666 7.21836l143.583825 143.583825a25.29224 25.29224 0 0 0 17.682186 7.777924h85.780984a73.694426 73.694426 0 0 0 57.858798 29.992568h0.615519a73.806339 73.806339 0 0 0 72.743169-60.880437 77.835191 77.835191 0 0 0-16.171366-62.671038 73.750383 73.750383 0 0 0-56.963497-25.460109 69.889399 69.889399 0 0 0-60.264918 32.06295h-45.548416a23.33377 23.33377 0 0 1-16.786885-6.602841l-120.138142-117.060547z m349.838688 329.414645a69.27388 69.27388 0 0 0-65.972459 41.071913h-217.334207a56.62776 56.62776 0 0 0-40.176612 15.891585l-166.358033 165.798469a24.005246 24.005246 0 0 1-17.066667 7.218361h-94.398251a60.600656 60.600656 0 0 0-34.469071-27.586448 68.434536 68.434536 0 0 0-25.795847-5.595628 75.652896 75.652896 0 0 0-69.833443 46.443715 73.414645 73.414645 0 0 0 1.51082 55.956285 75.708852 75.708852 0 0 0 40.176612 39.840874 79.96153 79.96153 0 0 0 26.35541 4.476503 68.938142 68.938142 0 0 0 59.369617-29.992569h120.809618a56.907541 56.907541 0 0 0 40.456393-16.786885l162.776831-165.742514a28.537705 28.537705 0 0 1 19.193005-9.288743h205.919126l2.685901 0.895301a72.743169 72.743169 0 1 0 52.151257-122.600219z m-499.409836-84.829727h-102.232131a67.147541 67.147541 0 0 0-59.03388-30.552131 71.456175 71.456175 0 0 0-73.414644 73.134864 72.351475 72.351475 0 0 0 74.309945 73.750382 69.609617 69.609617 0 0 0 59.649399-32.062951h99.546229a70.448962 70.448962 0 0 0 59.649399 32.958252h0.615519a73.470601 73.470601 0 1 0-59.033879-117.228416z" fill="#2D56A5" p-id="22585"></path></svg>