<svg t="1770129414667" class="icon" viewBox="0 0 1190 1024" version="1.1" xmlns="http://www.w3.org/2000/svg" p-id="28481" width="256" height="256"><path d="M559.627907 126.213953h469.134884c23.813953 0 42.865116 19.051163 42.865116 42.865117v464.372093c0 23.813953-19.051163 42.865116-42.865116 42.865116H559.627907c-23.813953 0-42.865116-19.051163-42.865116-42.865116V169.07907c0-23.813953 19.051163-42.865116 42.865116-42.865117z" fill="#0055DE" p-id="28482"></path><path d="M180.986047 19.051163h669.172093c23.813953 0 42.865116 19.051163 42.865116 42.865116v662.027907c0 23.813953-19.051163 42.865116-42.865116 42.865116H180.986047c-23.813953 0-42.865116-19.051163-42.865117-42.865116V61.916279c0-23.813953 19.051163-42.865116 42.865117-42.865116z" fill="#969696" opacity=".1" p-id="28483"></path><path d="M850.15814 785.860465H180.986047C147.646512 785.860465 119.069767 757.283721 119.069767 723.944186V61.916279C119.069767 28.576744 147.646512 0 180.986047 0h669.172093c33.339535 0 61.916279 28.576744 61.916279 61.916279v662.027907c0 33.339535-26.195349 61.916279-61.916279 61.916279zM180.986047 38.102326c-11.906977 0-23.813953 9.525581-23.813954 23.813953v662.027907c0 11.906977 9.525581 23.813953 23.813954 23.813954h669.172093c11.906977 0 23.813953-9.525581 23.813953-23.813954V61.916279c0-11.906977-9.525581-23.813953-23.813953-23.813953H180.986047z" fill="#9BC5FF" p-id="28484"></path><path d="M676.316279 595.348837H371.497674c-23.813953 0-42.865116-19.051163-42.865116-42.865116V252.427907c0-23.813953 19.051163-42.865116 42.865116-42.865116h302.43721c23.813953 0 42.865116 19.051163 42.865116 42.865116v300.055814c2.381395 23.813953-16.669767 42.865116-40.483721 42.865116zM371.497674 252.427907v300.055814h302.43721V252.427907H371.497674z" fill="#FFFFFF" p-id="28485"></path><path d="M588.204651 488.186047h-128.595349c-11.906977 0-21.432558-9.525581-21.432558-21.432559v-128.595348c0-11.906977 9.525581-21.432558 21.432558-21.432559h130.976745c11.906977 0 21.432558 9.525581 21.432558 21.432559v128.595348c-2.381395 11.906977-11.906977 21.432558-23.813954 21.432559z m-107.162791-42.865117h85.730233v-85.730232h-85.730233v85.730232zM426.269767 250.046512c-9.525581 0-19.051163-9.525581-19.051162-19.051163V166.697674c0-9.525581 9.525581-19.051163 19.051162-19.051162s19.051163 9.525581 19.051163 19.051162v64.297675c0 9.525581-9.525581 19.051163-19.051163 19.051163zM426.269767 657.265116c-9.525581 0-19.051163-9.525581-19.051162-19.051163v-64.297674c0-9.525581 9.525581-19.051163 19.051162-19.051163s19.051163 9.525581 19.051163 19.051163v64.297674c0 9.525581-9.525581 19.051163-19.051163 19.051163zM523.906977 250.046512c-9.525581 0-19.051163-9.525581-19.051163-19.051163V166.697674c0-9.525581 9.525581-19.051163 19.051163-19.051162s19.051163 9.525581 19.051163 19.051162v64.297675c0 9.525581-9.525581 19.051163-19.051163 19.051163zM523.906977 657.265116c-9.525581 0-19.051163-9.525581-19.051163-19.051163v-64.297674c0-9.525581 9.525581-19.051163 19.051163-19.051163s19.051163 9.525581 19.051163 19.051163v64.297674c0 9.525581-9.525581 19.051163-19.051163 19.051163zM621.544186 250.046512c-9.525581 0-19.051163-9.525581-19.051163-19.051163V166.697674c0-9.525581 9.525581-19.051163 19.051163-19.051162s19.051163 9.525581 19.051163 19.051162v64.297675c0 9.525581-7.144186 19.051163-19.051163 19.051163zM621.544186 657.265116c-9.525581 0-19.051163-9.525581-19.051163-19.051163v-64.297674c0-9.525581 9.525581-19.051163 19.051163-19.051163s19.051163 9.525581 19.051163 19.051163v64.297674c0 9.525581-7.144186 19.051163-19.051163 19.051163zM350.065116 323.869767H285.767442c-9.525581 0-19.051163-9.525581-19.051163-19.051162s9.525581-19.051163 19.051163-19.051163h64.297674c9.525581 0 19.051163 9.525581 19.051163 19.051163s-7.144186 19.051163-19.051163 19.051162zM762.046512 323.869767h-64.297675c-9.525581 0-19.051163-9.525581-19.051163-19.051162s7.144186-19.051163 19.051163-19.051163H762.046512c9.525581 0 19.051163 9.525581 19.051162 19.051163s-9.525581 19.051163-19.051162 19.051162zM350.065116 421.506977H285.767442c-9.525581 0-19.051163-9.525581-19.051163-19.051163s9.525581-19.051163 19.051163-19.051163h64.297674c9.525581 0 19.051163 9.525581 19.051163 19.051163s-7.144186 19.051163-19.051163 19.051163zM762.046512 421.506977h-64.297675c-9.525581 0-19.051163-9.525581-19.051163-19.051163s9.525581-19.051163 19.051163-19.051163H762.046512c9.525581 0 19.051163 9.525581 19.051162 19.051163s-9.525581 19.051163-19.051162 19.051163zM350.065116 519.144186H285.767442c-9.525581 0-19.051163-9.525581-19.051163-19.051163s9.525581-19.051163 19.051163-19.051163h64.297674c9.525581 0 19.051163 9.525581 19.051163 19.051163s-7.144186 19.051163-19.051163 19.051163zM762.046512 519.144186h-64.297675c-9.525581 0-19.051163-9.525581-19.051163-19.051163s9.525581-19.051163 19.051163-19.051163H762.046512c9.525581 0 19.051163 9.525581 19.051162 19.051163s-9.525581 19.051163-19.051162 19.051163z" fill="#FFFFFF" p-id="28486"></path></svg>